<svg xmlns="http://www.w3.org/2000/svg" viewBox="0 0 281.41 10.07"><defs><style>.cls-1{fill:#e2ebf7;}</style></defs><title>waves-top</title><g id="Слой_2" data-name="Слой 2"><g id="Слой_1-2" data-name="Слой 1"><path class="cls-1" d="M0,0V5A11.51,11.51,0,0,1,10.37,6.7l.87.68a22.79,22.79,0,0,0,2,1.46,8.07,8.07,0,0,0,4.17,1.23,8.51,8.51,0,0,0,4.7-1.38l.8-.56.37-.3c.64-.5,1.28-1,2-1.46a10.29,10.29,0,0,1,4.19-1.7L30,4.59a11.87,11.87,0,0,1,1.68-.12,12.16,12.16,0,0,1,2.41.24,10.89,10.89,0,0,1,2.78,1,11.91,11.91,0,0,1,1.64,1l1.45,1.09L41,8.6l.33.22a8.23,8.23,0,0,0,2.45,1,8.85,8.85,0,0,0,1.79.21A8.54,8.54,0,0,0,48,9.7l.35-.09c.17-.06.33-.14.5-.21A6.73,6.73,0,0,0,49.7,9a3.62,3.62,0,0,0,.33-.2c.31-.19.62-.39.93-.62L51.29,8l.2-.15c.62-.49,1.24-1,1.9-1.43.13-.09.28-.15.41-.24h0l0,0a9.89,9.89,0,0,1,1.24-.67l.18-.07a10.6,10.6,0,0,1,1.27-.45l.37-.08c.35-.08.7-.17,1.07-.22a11.76,11.76,0,0,1,1.78-.14,12.23,12.23,0,0,1,1.92.15,10.19,10.19,0,0,1,3.36,1.09,5.65,5.65,0,0,1,.58.36c.26.15.51.28.76.45s.38.3.58.44c.77.61,1.57,1.2,2.41,1.76l.27.16a7.22,7.22,0,0,0,1.78.82l.22.05a8.38,8.38,0,0,0,2.14.31,8.5,8.5,0,0,0,5.37-1.92l.42-.33c.64-.49,1.27-1,1.93-1.44.13-.09.29-.14.42-.22l0,0a10.3,10.3,0,0,1,1.48-.76q.4-.17.84-.3a11.12,11.12,0,0,1,2.79-.53c.3,0,.6-.07.9-.07a11.52,11.52,0,0,1,3.5.54l.08,0a9.59,9.59,0,0,1,1.19.49,4.93,4.93,0,0,1,.53.22l.2.12a13.41,13.41,0,0,1,1.36.84l.88.69a23.85,23.85,0,0,0,2,1.44,6.81,6.81,0,0,0,1.75.8l.48.14a8.2,8.2,0,0,0,2.11.29A8.41,8.41,0,0,0,104,9.8l.55-.13A7.22,7.22,0,0,0,106,9a8.63,8.63,0,0,0,.82-.51l.18-.13.91-.68c.38-.29.78-.56,1.17-.84.18-.13.35-.27.53-.39l.06,0,.39-.28c.19-.12.43-.19.63-.3s.54-.28.82-.4.67-.29,1-.4a12,12,0,0,1,2-.44l.06,0,.35,0c.37,0,.67,0,1,0h.22a11.64,11.64,0,0,1,5.15,1.21l.12,0c.23.12.44.27.67.41a9.45,9.45,0,0,1,.86.53L124.73,8c.33.25.65.5,1,.72l.24.15a8.16,8.16,0,0,0,1.83.83l.23,0a8.31,8.31,0,0,0,1.73.26c.11,0,.21,0,.33,0a8.78,8.78,0,0,0,2.23-.29l.26-.06a7,7,0,0,0,1.82-.82l.14-.08c.59-.39,1.14-.81,1.69-1.23s1-.77,1.54-1.13l.06,0,.05,0c.07,0,.16-.08.24-.13a12.49,12.49,0,0,1,1.39-.76q.44-.18.87-.33a10.25,10.25,0,0,1,1.34-.38,3.57,3.57,0,0,1,.35-.1l.29,0a12.1,12.1,0,0,1,1.91-.16,11.67,11.67,0,0,1,2.21.23,1.49,1.49,0,0,0,.21,0,11.19,11.19,0,0,1,1.17.32h.05a10.17,10.17,0,0,1,1.56.63,11.34,11.34,0,0,1,1.64,1c.48.35,2.57,1.94,2.57,1.94l.35.24.26.13a7.68,7.68,0,0,0,1.34.61l.62.2a8,8,0,0,0,1.21.18,6.65,6.65,0,0,0,.78.09,9.59,9.59,0,0,0,1.34-.1c.25,0,.49-.1.73-.16l.41-.1a8.73,8.73,0,0,0,2.15-1c.27-.19.54-.37.79-.56l.38-.3c.64-.5,1.28-1,1.95-1.46a10.34,10.34,0,0,1,2.64-1.26,11,11,0,0,1,1.16-.33c.14,0,.26-.09.39-.11l.54-.08h0c.3,0,.62,0,.92-.06s.48,0,.72,0h.06a12.13,12.13,0,0,1,2.19.23h.16c.25,0,.5.14.75.2s.46.11.67.19a3.34,3.34,0,0,1,.38.16,9.4,9.4,0,0,1,2,1c.19.12.41.22.6.36l1.23.92c.56.42,1.1.84,1.68,1.23a6.65,6.65,0,0,0,1.79.82l.36.12a8.27,8.27,0,0,0,2.06.3h0a8.64,8.64,0,0,0,2.27-.31c.17-.05.35-.08.53-.14a3.42,3.42,0,0,0,.4-.17,8.19,8.19,0,0,0,.91-.41l.31-.19a10.16,10.16,0,0,0,.93-.63l.38-.28.12-.09c.63-.5,1.27-1,1.94-1.46.09-.06.2-.09.29-.15l.13-.1a10,10,0,0,1,1.6-.8c.21-.09.42-.16.64-.23a11.85,11.85,0,0,1,3.55-.61l.26,0a11.52,11.52,0,0,1,3.5.54,11.31,11.31,0,0,1,3.36,1.7l.88.69c.65.5,1.29,1,2,1.45.09.06.19.09.29.15a7.29,7.29,0,0,0,1.33.6,4.71,4.71,0,0,0,.64.19,7.67,7.67,0,0,0,4.07,0l.41-.1a7.42,7.42,0,0,0,1.69-.77l.46-.28c.5-.35,1-.7,1.46-1.07s1-.77,1.54-1.13c.08-.06.17-.09.25-.14l.24-.18c.12-.07.27-.11.39-.18a10,10,0,0,1,1.23-.6c.26-.1.5-.21.77-.3a11.2,11.2,0,0,1,2.08-.47h0l.35,0c.33,0,.59,0,.86,0l.29,0a11.84,11.84,0,0,1,2.59.32,11.46,11.46,0,0,1,4.25,1.88c.48.35,2.57,1.94,2.57,1.94.17.13.37.23.56.35a7.91,7.91,0,0,0,1.68.75l.46.1a8.1,8.1,0,0,0,1.64.23l.23,0a8.46,8.46,0,0,0,2.68-.44,7.53,7.53,0,0,0,1.8-.83c.58-.38,1.13-.8,1.67-1.22s1-.76,1.53-1.12l.13-.08a1.77,1.77,0,0,0,.17-.12c.26-.16.54-.29.81-.44l.46-.25c.41-.19.85-.35,1.28-.5.09,0,.18-.07.27-.09a10,10,0,0,1,1.55-.35l.1,0a10.72,10.72,0,0,1,1.7-.13h0a11.65,11.65,0,0,1,4.95,1.13l.32.13c.24.12.45.28.68.42s.58.32.85.52c.48.35,1,.72,1.43,1.08l.28.21c.35.27.71.55,1.09.8l.22.13a8,8,0,0,0,1.83.83l.23,0a8.21,8.21,0,0,0,1.72.26c.11,0,.22,0,.34,0h0a8.45,8.45,0,0,0,4.62-1.37l.8-.56.38-.3c.63-.5,1.27-1,1.94-1.46A10.34,10.34,0,0,1,281.41,5V0Z"/></g></g></svg>