<svg xmlns="http://www.w3.org/2000/svg" viewBox="0 0 106.28 36.96"><defs><style>.cls-1{fill:#552a15;}</style></defs><title>logo-dark</title><g id="Слой_2" data-name="Слой 2"><g id="Слой_1-2" data-name="Слой 1"><path class="cls-1" d="M40.22,16.18h-1.7v-3h4.82V12H37.13V22.78l.46.06c.28,0,.66.07,1.18.11s1,0,1.5,0c2.94,0,4.37-1.15,4.37-3.53C44.64,17.25,43.19,16.18,40.22,16.18Zm.05,5.62c-.45,0-1,0-1.75-.09V17.35h1.7c2.07,0,3.08.69,3.08,2.11C43.3,21.05,42.33,21.8,40.27,21.8ZM49.63,12l-4.3,10.79h1.43L47.87,20H53l1.11,2.82h1.43L51.27,12Zm2.91,6.8h-4.2l2.09-5.33ZM64.48,12h1.4V22.79h-1.4V18H58.65v4.76H57.26V12h1.39v4.86h5.83Zm17.33,9.65h1.26l0,3.16H81.81v-2H69.06V12h1.39v9.65h4.3V12h1.4v9.65h4.27V12h1.39ZM94.05,12h0l0,.07V22.79H92.67V14.14l-6,8.47-.09.18H85.3V12h1.39v8.43l0,.21,6-8.45.09-.19H94l.1-.1Zm12.17,10.79h-1.65l-4.6-5H98.64v5H97.25V12h1.39v4.66H100L104.26,12h1.57l-4.62,5.28ZM37.2,29V26.83h.25v.94h.3l.85-.94h.28L38,27.88,39,29h-.29l-.93-1h-.29v1Zm2.19,0,.85-2.15h.32L41.41,29h-.26l-.23-.57H39.87l-.23.57Zm.56-.77h.89l-.44-1.14Zm2-1.38h.25v.8c0,.29.14.42.46.42a1.33,1.33,0,0,0,.28,0l.2-.06.08,0V26.83h.26V29h-.26v-.87l-.1.05-.14.05a1.47,1.47,0,0,1-.41.05c-.43,0-.62-.21-.62-.59ZM44.49,29V26.83h1.34V27H44.74v.75h1V28h-1v.78h1.18V29ZM47,27.1a1.1,1.1,0,0,1,.82-.3,1.72,1.72,0,0,1,.32,0l.25,0,.08,0,0,.21-.09,0a1.26,1.26,0,0,0-.22,0l-.3,0a.84.84,0,0,0-.65.25.89.89,0,0,0-.24.66.87.87,0,0,0,.25.66.84.84,0,0,0,.62.24l.33,0,.23,0,.07,0,0,.21-.07,0-.22,0a2.17,2.17,0,0,1-.37,0A1.15,1.15,0,0,1,47,27.1ZM48.83,27v-.2h1.55V27h-.65V29h-.25V27ZM51.05,29V26.83a5.4,5.4,0,0,1,.61,0c.53,0,.79.19.79.58a.54.54,0,0,1-.22.45.54.54,0,0,1,.34.54.55.55,0,0,1-.19.47,1.11,1.11,0,0,1-.72.18h-.3l-.23,0Zm.25-1.21h.54a.37.37,0,0,0,.35-.39c0-.24-.18-.38-.5-.38l-.39,0Zm0,1h.38a.86.86,0,0,0,.49-.11.37.37,0,0,0,.15-.33c0-.26-.18-.39-.49-.39H51.3Zm2.25-1.7a1,1,0,0,1,.79-.3,1,1,0,0,1,.79.3,1.13,1.13,0,0,1,.28.81,1.11,1.11,0,0,1-.28.81,1,1,0,0,1-.79.3,1,1,0,0,1-.79-.3,1.11,1.11,0,0,1-.29-.81A1.13,1.13,0,0,1,53.55,27.1Zm.19,1.47a.75.75,0,0,0,.6.24.77.77,0,0,0,.6-.24.92.92,0,0,0,.22-.66,1,1,0,0,0-.22-.66.78.78,0,0,0-.6-.24.75.75,0,0,0-.6.24,1.1,1.1,0,0,0,0,1.32Zm3.65.41V26.83H59V29h-.25V27H57.64V29Zm2.67,0V26.83a4.33,4.33,0,0,1,.53,0c.55,0,.84.21.84.68a.71.71,0,0,1-.35.66.88.88,0,0,1-.45.11h-.32V29Zm.25-.94h.27a.53.53,0,0,0,.59-.56c0-.33-.22-.48-.58-.48l-.28,0Zm2.07-.94a1,1,0,0,1,.79-.3,1,1,0,0,1,.79.3,1.13,1.13,0,0,1,.29.81,1.11,1.11,0,0,1-.29.81,1.19,1.19,0,0,1-1.58,0,1.11,1.11,0,0,1-.29-.81A1.13,1.13,0,0,1,62.38,27.1Zm.19,1.47a.87.87,0,0,0,1.2,0,1.1,1.1,0,0,0,0-1.32.77.77,0,0,0-.6-.24.78.78,0,0,0-.6.24,1.1,1.1,0,0,0,0,1.32Zm2.55.41V26.83a5.4,5.4,0,0,1,.61,0c.53,0,.79.19.79.58a.56.56,0,0,1-.22.45.54.54,0,0,1,.34.54.58.58,0,0,1-.19.47,1.11,1.11,0,0,1-.72.18h-.31l-.23,0Zm.25-1.21h.53a.38.38,0,0,0,.36-.39c0-.24-.18-.38-.5-.38l-.39,0Zm0,1h.38a.86.86,0,0,0,.49-.11.37.37,0,0,0,.14-.33c0-.26-.17-.39-.49-.39h-.52Zm2.12.18V26.83h1.33V27H67.74v.75h1V28h-1v.78h1.17V29Zm2.34,0V26.83a4.22,4.22,0,0,1,.53,0c.55,0,.83.21.83.68a.71.71,0,0,1-.34.66.88.88,0,0,1-.45.11h-.32V29Zm.25-.94h.27a.54.54,0,0,0,.59-.56c0-.33-.22-.48-.58-.48l-.28,0ZM72,29V26.83h1.33V27H72.27v.75h1V28h-1v.78h1.17V29Zm2.34,0V26.83h.25v1h1.21v-1h.25V29h-.25V28H74.61v1Zm2.74,0V26.83h.25v1h1.2v-1h.26V29h-.26V28h-1.2v1ZM80,27.1a1.06,1.06,0,0,1,.79-.3,1,1,0,0,1,.79.3,1.09,1.09,0,0,1,.29.81,1.07,1.07,0,0,1-.29.81,1,1,0,0,1-.79.3,1,1,0,0,1-.79-.3,1.11,1.11,0,0,1-.28-.81A1.13,1.13,0,0,1,80,27.1Zm.19,1.47a.88.88,0,0,0,1.21,0,1.14,1.14,0,0,0,0-1.32.88.88,0,0,0-1.21,0,1.1,1.1,0,0,0,0,1.32ZM82.7,29V26.83H84V27H83v.75h1V28H83v.78h1.18V29Zm3.45,0V26.83a5.4,5.4,0,0,1,.61,0c.53,0,.79.19.79.58a.54.54,0,0,1-.22.45.54.54,0,0,1,.34.54.55.55,0,0,1-.19.47,1.11,1.11,0,0,1-.72.18h-.3l-.23,0Zm.25-1.21h.54a.37.37,0,0,0,.35-.39c0-.24-.18-.38-.5-.38l-.39,0Zm0,1h.38a.86.86,0,0,0,.49-.11.37.37,0,0,0,.15-.33c0-.26-.18-.39-.49-.39H86.4Zm2.12.18V26.83a4.11,4.11,0,0,1,.53,0c.55,0,.83.21.83.68a.71.71,0,0,1-.34.66.88.88,0,0,1-.45.11h-.32V29Zm.25-.94H89a.54.54,0,0,0,.59-.56c0-.33-.22-.48-.59-.48l-.27,0ZM90.7,29V26.83H92V27H91v.75h1V28H91v.78h1.17V29Zm2.35,0V26.83h.33l.86,1.43.88-1.43h.32V29h-.25V27.21l-.82,1.33h-.25l-.82-1.33V29Zm3.42,0V26.83H97.8V27H96.72v.75h1V28h-1v.78h1.17V29Zm2.34,0V26.83h.25v1h1.21v-1h.25V29h-.25V28H99.06v1Zm2.74,0V26.83h1.33V27H101.8v.75h1V28h-1v.78H103V29Zm2.34,0V26.83h.33l.86,1.43.88-1.43h.32V29H106V27.21l-.82,1.33H105l-.82-1.33V29ZM24.51,7.67A4,4,0,0,0,21.9,4.22a.3.3,0,0,1-.25-.29A3.72,3.72,0,0,0,20.2,1.55,6.41,6.41,0,0,0,18,.47,14.88,14.88,0,0,0,14.76,0h-.37V0a3,3,0,0,1-.9.06,16.91,16.91,0,0,0-4.77,1C7.83,1.38,7,1.69,6.08,2a5.74,5.74,0,0,1-4.52-.35l-.44-.22c0,.09-.06.16-.08.23A12.68,12.68,0,0,0,.88,5.86,6.23,6.23,0,0,0,3,10H3a14.8,14.8,0,0,0,.59,18.52v.18a4.81,4.81,0,0,0,1.78,3.45,20,20,0,0,0,9.07,4.82,2.85,2.85,0,0,0,1.23-.14,24.46,24.46,0,0,0,4.74-1.94,20.23,20.23,0,0,0,2.28-1.45,11.9,11.9,0,0,0,1.19-1,7.74,7.74,0,0,0,1.41-1.91,5.15,5.15,0,0,0,.53-1.64A14.8,14.8,0,0,0,24.51,7.67Zm4.12,11.19a13.78,13.78,0,0,1-2.88,8.43,4.69,4.69,0,0,0-1.44-2.53c-.19-.18-.12-.25,0-.4a4,4,0,0,0,.21-5c-.2-.26-.16-.36.07-.57a6,6,0,0,0,2.05-4.92c-.06-1.21-.76-1.76-1.88-1.53l-.1,0h0v0l-.7.53a5.79,5.79,0,0,1,.3-2.74c.07-.41.14-.82.2-1.23A13.79,13.79,0,0,1,28.63,18.86ZM4.78,28.33l-.11-.11a5.1,5.1,0,0,1,.55-1.84,1.52,1.52,0,0,1,2.19-.56c.31.18.31.31,0,.51-.47.31-.95.59-1.41.91A4.47,4.47,0,0,0,4.78,28.33Zm.77-11.14a.73.73,0,0,1,.07.74c-.08.15-.16.22-.32.05a5.31,5.31,0,0,1-1.53-4,1.49,1.49,0,0,1,.08-.42.36.36,0,0,1,.56-.23,2.29,2.29,0,0,1,1.28,2.16c0,.13,0,.28-.17.33s-.23-.09-.31-.19c-.22-.27-.35-.6-.55-.88A6.8,6.8,0,0,0,5.55,17.19Zm.94,7a4.48,4.48,0,0,1-1-3.07,4.34,4.34,0,0,0,3.32,2.61h.94a13.31,13.31,0,0,0,3.2-.54,7.34,7.34,0,0,0,1.68-.78.2.2,0,0,1,.31,0,10.2,10.2,0,0,0,4,1.32,4.72,4.72,0,0,0,4.35-1.4A5.73,5.73,0,0,0,24,21.27a1.23,1.23,0,0,1,.18.88,3.61,3.61,0,0,1-3.51,3,9.76,9.76,0,0,1-5.8-2.07.3.3,0,0,0-.24-.06A8.26,8.26,0,0,1,8.43,25.2,2.66,2.66,0,0,1,6.49,24.23ZM19.77,8a3.66,3.66,0,0,1,3,3.76c0,2,0,4,0,6.08a4,4,0,0,1-.12,1A2.52,2.52,0,0,1,19.8,21a5.6,5.6,0,0,1-2.5-.56,1.4,1.4,0,0,1-.85-1.4c0-1.39,0-2.77,0-4.15,0-.3.08-.37.37-.39a8.76,8.76,0,0,0,3.25-.79,3.27,3.27,0,0,0,1.18-.93c-.34-.1-.67,0-1,0a28.64,28.64,0,0,0-3.8.5l-.45.11a.69.69,0,0,0-.59.8v5.36c0,.69-.21.83-.83.56,0,0-.11,0-.14-.07A1.28,1.28,0,0,0,12.89,20a8.67,8.67,0,0,1-3.69.92,2.36,2.36,0,0,1-2.61-2.48c0-1.67,0-3.34,0-5a2.2,2.2,0,0,1,1.95-2.16c1.15-.18,2.3-.34,3.44-.58a21,21,0,0,0,5.83-2.42A2.41,2.41,0,0,1,19.77,8Zm3,13a2.83,2.83,0,0,1-2.65,2,6,6,0,0,1-3.83-1l-.43-.28a1.59,1.59,0,0,0-2,0A6.81,6.81,0,0,1,9.62,23,3.15,3.15,0,0,1,6.85,21.3a5.9,5.9,0,0,0,5.65-.1c.22-.1.44-.22.66-.33a1.34,1.34,0,0,1,1.17-.08,1.75,1.75,0,0,0,.81.15,3.56,3.56,0,0,1,1.54.3,6.94,6.94,0,0,0,4.75.32A7.54,7.54,0,0,0,22.75,20.94Zm1.61-5.69a.3.3,0,0,1-.42.06.33.33,0,0,1-.11-.42,3.55,3.55,0,0,1,1.22-1.54c.15-.12.31,0,.41.12a.91.91,0,0,1,.18.55,5.24,5.24,0,0,1-1.45,3.8c-.09.1-.18.27-.35.17a.41.41,0,0,1-.2-.43,1,1,0,0,1,.27-.56,4.8,4.8,0,0,0,.92-2.23C24.66,14.94,24.52,15.11,24.36,15.25ZM21.42,5.32c.14-.12.24.08.34.16a3.71,3.71,0,0,1,.81.76,3.16,3.16,0,0,1,.65,1.68,5.22,5.22,0,0,1,0,1.18,4.48,4.48,0,0,0-1.69-1.66c-.22-.13-.47-.22-.7-.33s-.47-.23-.4-.51a.32.32,0,0,1,.26-.24,1.83,1.83,0,0,1,.33,0,2.38,2.38,0,0,1,1,.43h0l.09,0V6.7a2.59,2.59,0,0,0-.44-.59,2.34,2.34,0,0,1-.24-.31.73.73,0,0,1-.07-.24A.31.31,0,0,1,21.42,5.32ZM2.33,6.93a7.83,7.83,0,0,1-.62-3.24c0-.25-.11-.58,0-.72s.44.09.67.14a7,7,0,0,0,2.88,0c1.84-.35,3.61-1,5.43-1.38a20,20,0,0,1,5-.77,5.66,5.66,0,0,1,3.65,1.19,2.69,2.69,0,0,1,.8,1,5.62,5.62,0,0,0-1.89-.33A3.08,3.08,0,0,1,16,2.1,2,2,0,0,0,15,1.75h0c-.05,0-.12,0-.13,0s0,.06.08.08a3,3,0,0,1,.88.76c.12.16.12.25-.1.27a4.55,4.55,0,0,1-3-.19,2,2,0,0,0-1.38-.12,3.43,3.43,0,0,1,1.34.82,7.63,7.63,0,0,1-2,.73,1.73,1.73,0,0,1-1.18-.3,3.41,3.41,0,0,0-2.47-.5c-.08,0-.17,0-.22.12A3.17,3.17,0,0,1,9,4.48,6.57,6.57,0,0,1,7.7,4.7a10.67,10.67,0,0,1-4.34-.62C3.19,4,3.19,4,3.14,4.15a4.6,4.6,0,0,0,2,1.07A2.91,2.91,0,0,0,3.49,7,4.32,4.32,0,0,1,7.32,5.45a5.92,5.92,0,0,0-.6,1,5.14,5.14,0,0,0-.47,1.58,5.08,5.08,0,0,0,0,.88c.16,0,.12-.14.14-.21a7.65,7.65,0,0,1,.36-1A4.64,4.64,0,0,1,9.05,5.25l.43-.19a2.4,2.4,0,0,1,.59-.13c.12,0,.29-.08.37,0s-.07.21-.12.31a4.85,4.85,0,0,0-.27.62A4.38,4.38,0,0,0,9.9,8.32c.14-.08.12-.23.16-.34A13.32,13.32,0,0,1,11,5.78a1.59,1.59,0,0,1,.13-.22,3,3,0,0,1,1.31-1.11,7.12,7.12,0,0,1,.76-.31L13.67,4a14.61,14.61,0,0,1,2-.46l-.45.54c-.27.33-.54.66-.78,1a3.79,3.79,0,0,0-.73,2.23c.37-.48.68-1,1.06-1.47a8.18,8.18,0,0,1,.69-.75,4.61,4.61,0,0,1,1.21-.87l0,0a2.85,2.85,0,0,1,3.07.21c.35.24.41.35.22.6l-.13.16a6.5,6.5,0,0,1-.66.63,10.51,10.51,0,0,1-1.09.8,26,26,0,0,1-8.09,3.21,10.22,10.22,0,0,1-3.26.32,5.72,5.72,0,0,1-2.14-.57A4.54,4.54,0,0,1,3.79,9,5.26,5.26,0,0,1,2.33,6.93ZM1,18.86a13.75,13.75,0,0,1,2.81-8.33,5.67,5.67,0,0,0,1.41.52c.16,0,.34,0,.34.28,0,.52,0,1,0,1.63a3.78,3.78,0,0,0-1-.47,1.13,1.13,0,0,0-1.52.72,3.22,3.22,0,0,0-.22,1.52,6,6,0,0,0,2.06,4c.24.22.27.35.09.63a3.9,3.9,0,0,0,.22,5c.15.21,0,.28-.07.41a6.42,6.42,0,0,0-1.38,2.37A13.78,13.78,0,0,1,1,18.86ZM6.5,31.22c-.1.2-.15.26-.34.07a4.55,4.55,0,0,1-.78-1,.3.3,0,0,1,0-.08A1.15,1.15,0,0,1,5.41,29l.07-.09a7.22,7.22,0,0,1,4-2.5,23.38,23.38,0,0,0,3.06-.81s.07,0,.14,0l-2.44,1.8a16.21,16.21,0,0,0-3.14,2.94l-.21.27a4.1,4.1,0,0,0-.36.56A.43.43,0,0,0,6.5,31.22Zm3.43,2.26c0,.16,0,.22-.21.13a6.74,6.74,0,0,1-1.27-.68,1.49,1.49,0,0,1-.53-.4,1.09,1.09,0,0,1-.38-.77,1.14,1.14,0,0,1,.16-.61,3.9,3.9,0,0,1,.19-.35,6.1,6.1,0,0,1,1.25-1.43,26.12,26.12,0,0,1,3.31-2.44A14.3,14.3,0,0,0,14,25.84a2.55,2.55,0,0,0,1-1.42l.15.48a1.7,1.7,0,0,1-.27,1.22,8.68,8.68,0,0,1-1.16,1.53A32.16,32.16,0,0,0,11,31a11.63,11.63,0,0,0-.61,1,5.1,5.1,0,0,0-.37.94A3.63,3.63,0,0,0,9.93,33.48ZM14,35c0,.23,0,.34-.3.25-.56-.17-1.14-.31-1.7-.49a1.44,1.44,0,0,1-.89-1.6s0-.08,0-.12a3.81,3.81,0,0,1,.34-.83c.1-.17.2-.34.31-.5a21.79,21.79,0,0,1,2.78-3.35,5.27,5.27,0,0,0,1.77-3A1.58,1.58,0,0,1,17,27.19a7.21,7.21,0,0,1-.91,2,22.38,22.38,0,0,0-1.67,3.45c-.06.17-.12.35-.17.52s-.08.32-.11.48A5.31,5.31,0,0,0,14,35Zm4.75-.68a11.25,11.25,0,0,1-2.45.9,1,1,0,0,1-1.15-1,2.32,2.32,0,0,1,0-.59,3.06,3.06,0,0,1,.29-.85l.08-.16c.67-1.34,1.42-2.63,2-4a11.79,11.79,0,0,0,.56-1.54,1.94,1.94,0,0,0,0-1.26,1.36,1.36,0,0,1,1,1A4.94,4.94,0,0,1,19.16,29C19,30,18.91,31,18.78,32.09c0,.21-.05.42-.08.63a3.4,3.4,0,0,0,0,.45,2,2,0,0,0,.18.89C18.93,34.23,18.84,34.3,18.71,34.36Zm3.09-1.61a4.09,4.09,0,0,1-1,.49.65.65,0,0,1-.94-.45v0a2.38,2.38,0,0,1-.11-1,4.27,4.27,0,0,1,.15-.71,10.46,10.46,0,0,0,.43-2.35,3.44,3.44,0,0,0-.31-2,.27.27,0,0,1,0-.32c.12-.14.22,0,.3,0a4,4,0,0,1,1.53,1.79,7.27,7.27,0,0,1,.58,2.16,6.88,6.88,0,0,1,.06.92.8.8,0,0,1,0,.21A1.27,1.27,0,0,1,21.8,32.75Zm2-1.85,0-.25a10.23,10.23,0,0,0-.23-1.1,8.72,8.72,0,0,0-2.05-3.62,2.93,2.93,0,0,1,2.68.6,2.46,2.46,0,0,1,.69,1.79,4.75,4.75,0,0,1-.15,1,2.94,2.94,0,0,1-.33.8A3.55,3.55,0,0,1,23.81,30.9Zm-11-18.41a5.79,5.79,0,0,1,1.11.86,1,1,0,0,1-1.48.18,5.28,5.28,0,0,0-3.94-.38l-.22.08a.17.17,0,0,1-.2-.09C8,13,8.12,13,8.19,13A4.23,4.23,0,0,1,12.81,12.49Zm-.19,3.16c.1.16.35.26.17.53a1.77,1.77,0,0,1-1.49.74,2.57,2.57,0,0,1-1.74-.73c-.15-.14-.2-.25-.05-.42s.14-.39.45-.26a2.58,2.58,0,0,0,2.3,0C12.48,15.37,12.55,15.53,12.62,15.65Zm8.38.07c.12.13.27.25.11.47a1.71,1.71,0,0,1-1.42.72,2.5,2.5,0,0,1-1.82-.73c-.13-.13-.19-.25,0-.4s.14-.4.45-.27a2.67,2.67,0,0,0,2.31,0C20.85,15.35,20.9,15.6,21,15.72Z"/></g></g></svg>